{
	"asset":{
		"version":"2.0",
		"generator":"Created using the official Cinema 4D glTF Exporter 1.000x284978"
	},
	"scenes":[{
		"nodes":[0]
	}],
	"nodes":[{
		"name":"newbox_blue_moving",
		"translation":[0.0,
		0.0,
		0.0],
		"rotation":[0.0,
		-1.0,
		0.0,
		-9.494107490944939e-16],
		"children":[1,
		2],
		"scale":[1.0,
		1.0,
		1.0]
	},
	{
		"name":"ribbon",
		"translation":[27.167713165283204,
		135.8893585205078,
		-5.601780891418457],
		"rotation":[0.0,
		-1.0,
		0.0,
		6.049014853807253e-16],
		"scale":[1.0,
		1.0,
		1.0],
		"mesh":0
	},
	{
		"name":"Cube",
		"translation":[3.331629948050835e-13,
		129.2290496826172,
		5.684341886080802e-14],
		"rotation":[0.0,
		-8.881784197001253e-16,
		0.0,
		-1.0],
		"scale":[1.0,
		1.0,
		1.0],
		"mesh":1
	}],
	"meshes":[{
		"name":"ribbon",
		"primitives":[{
			"attributes":{
				"POSITION":1,
				"NORMAL":2,
				"TEXCOORD_0":3
			},
			"indices":0,
			"material":0
		}]
	},
	{
		"name":"Cube",
		"primitives":[{
			"attributes":{
				"POSITION":5,
				"NORMAL":6,
				"TEXCOORD_0":7
			},
			"indices":4,
			"material":1
		}]
	}],
	"accessors":[{
		"min":[0],
		"bufferView":0,
		"type":"SCALAR",
		"componentType":5123,
		"count":900,
		"byteOffset":0,
		"max":[311]
	},
	{
		"min":[-7.92062520980835,
		63.22772979736328,
		-160.8404541015625],
		"bufferView":1,
		"type":"VEC3",
		"componentType":5126,
		"count":312,
		"byteOffset":0,
		"max":[62.114376068115237,
		156.5581817626953,
		149.3983154296875]
	},
	{
		"min":[-1.0,
		-1.0,
		-1.0],
		"bufferView":1,
		"type":"VEC3",
		"componentType":5126,
		"count":312,
		"byteOffset":12,
		"max":[1.0,
		0.9998705983161926,
		1.0]
	},
	{
		"min":[0.0,
		0.0],
		"bufferView":1,
		"type":"VEC2",
		"componentType":5126,
		"count":312,
		"byteOffset":24,
		"max":[1.0,
		1.0]
	},
	{
		"min":[0],
		"bufferView":2,
		"type":"SCALAR",
		"componentType":5123,
		"count":36288,
		"byteOffset":0,
		"max":[6293]
	},
	{
		"min":[-161.70809936523438,
		-129.2290496826172,
		-154.204345703125],
		"bufferView":3,
		"type":"VEC3",
		"componentType":5126,
		"count":6294,
		"byteOffset":0,
		"max":[161.70809936523438,
		162.57908630371095,
		154.204345703125]
	},
	{
		"min":[-1.0,
		-1.0,
		-1.0],
		"bufferView":3,
		"type":"VEC3",
		"componentType":5126,
		"count":6294,
		"byteOffset":12,
		"max":[1.0,
		1.0,
		1.0]
	},
	{
		"min":[-0.10201890766620636,
		-0.022970523685216905],
		"bufferView":3,
		"type":"VEC2",
		"componentType":5126,
		"count":6294,
		"byteOffset":24,
		"max":[1.1069819927215577,
		1.02297043800354]
	}],
	"bufferViews":[{
		"buffer":0,
		"byteOffset":0,
		"byteLength":1800,
		"target":34963
	},
	{
		"buffer":0,
		"byteOffset":1800,
		"byteLength":9984,
		"target":34962,
		"byteStride":32
	},
	{
		"buffer":1,
		"byteOffset":0,
		"byteLength":72576,
		"target":34963
	},
	{
		"buffer":1,
		"byteOffset":72576,
		"byteLength":201408,
		"target":34962,
		"byteStride":32
	}],
	"buffers":[{
		"uri":"data:application/octet-stream;base64,",
		"byteLength":11784
	},
	{
		"uri":"data:application/octet-stream;base64,",
		"byteLength":273984
	}],
	"materials":[{
		"name":"",
		"pbrMetallicRoughness":{
			"baseColorFactor":[1.0,
			1.0,
			1.0,
			1.0],
			"metallicFactor":1.0,
			"roughnessFactor":1.0
		},
		"emissiveFactor":[0.0,
		0.0,
		0.0],
		"alphaMode":"OPAQUE",
		"doubleSided":false
	},
	{
		"name":"",
		"pbrMetallicRoughness":{
			"baseColorFactor":[1.0,
			1.0,
			1.0,
			1.0],
			"metallicFactor":1.0,
			"roughnessFactor":1.0
		},
		"emissiveFactor":[0.0,
		0.0,
		0.0],
		"alphaMode":"OPAQUE",
		"doubleSided":false
	}]
}