{"asset": {"version": "2.0", "generator": "Created using the official Cinema 4D glTF Exporter 1.000x284978"}, "scenes": [{"nodes": [0, 3]}], "nodes": [{"name": "coupon", "translation": [0.0, 0.0, -164.3419952392578], "rotation": [0.0, 0.0, 0.0, -1.0], "scale": [1.0, 1.0, 1.0], "children": [1, 2]}, {"name": "percent", "translation": [-122.88288116455078, 74.93126678466797, 20.00139808654785], "rotation": [0.0, 0.0, 0.0, -1.0], "scale": [0.9, 0.9, 0.9], "mesh": 0}, {"name": "coupon", "translation": [-190.0, 0.0, -14.998601913452148], "rotation": [0.0, 0.0, 0.0, -1.0], "scale": [1.0, 1.0, 1.0], "mesh": 1}, {"camera": 0, "name": "isometric.1", "translation": [3434.04736328125, 2391.70068359375, 3584.621337890625], "rotation": [0.1943843811750412, -0.3626769185066223, -0.0776328593492508, -0.9081042408943176], "scale": [1.0, 1.0, 1.0]}], "meshes": [{"name": "percent", "primitives": [{"attributes": {"POSITION": 1, "NORMAL": 2, "TEXCOORD_0": 3}, "indices": 0}]}, {"name": "coupon", "primitives": [{"attributes": {"POSITION": 5, "NORMAL": 6, "TEXCOORD_0": 7}, "indices": 4}]}], "cameras": [{"type": "perspective", "perspective": {"znear": 0.009999999776482582, "zfar": 10000000000.0, "aspectRatio": 1.0, "yfov": 0.08993932604789734}}], "accessors": [{"bufferView": 0, "type": "SCALAR", "componentType": 5123, "count": 2460, "byteOffset": 0, "min": [0], "max": [851]}, {"bufferView": 1, "type": "VEC3", "componentType": 5126, "count": 852, "byteOffset": 0, "min": [-0.00019357517885509878, 0.13360117375850677, -5.0], "max": [140.66954040527344, 136.17530822753906, 0.0]}, {"bufferView": 1, "type": "VEC3", "componentType": 5126, "count": 852, "byteOffset": 12, "min": [-0.9999991655349731, -0.9999991655349731, -1.0], "max": [0.9999988675117493, 0.9999991655349731, 1.0]}, {"bufferView": 1, "type": "VEC2", "componentType": 5126, "count": 852, "byteOffset": 24, "min": [0.0, 0.0], "max": [1.0, 1.0]}, {"bufferView": 2, "type": "SCALAR", "componentType": 5123, "count": 4116, "byteOffset": 0, "min": [0], "max": [1075]}, {"bufferView": 3, "type": "VEC3", "componentType": 5126, "count": 1076, "byteOffset": 0, "min": [0.0, 0.5156288743019104, -3.0], "max": [392.11248779296875, 284.28155517578125, 33.0]}, {"bufferView": 3, "type": "VEC3", "componentType": 5126, "count": 1076, "byteOffset": 12, "min": [-1.0, -1.0, -1.0], "max": [1.0, 1.0, 1.0]}, {"bufferView": 3, "type": "VEC2", "componentType": 5126, "count": 1076, "byteOffset": 24, "min": [0.0, 0.0], "max": [1.0, 1.0]}], "bufferViews": [{"buffer": 0, "byteOffset": 0, "byteLength": 4920, "target": 34963}, {"buffer": 0, "byteOffset": 4920, "byteLength": 27264, "target": 34962, "byteStride": 32}, {"buffer": 1, "byteOffset": 0, "byteLength": 8232, "target": 34963}, {"buffer": 1, "byteOffset": 8232, "byteLength": 34432, "target": 34962, "byteStride": 32}], "buffers": [{"uri": "data:application/octet-stream;base64,", "byteLength": 32184}, {"uri": "data:application/octet-stream;base64,", "byteLength": 42664}]}