{
	"materials":[{
		"pbrMetallicRoughness":{
			"baseColorFactor":[1.0,
			1.0,
			1.0,
			1.0],
			"metallicFactor":1.0,
			"roughnessFactor":1.0
		},
		"emissiveFactor":[0.0,
		0.0,
		0.0],
		"alphaMode":"OPAQUE",
		"doubleSided":false,
		"name":""
	},
	{
		"pbrMetallicRoughness":{
			"baseColorFactor":[1.0,
			1.0,
			1.0,
			1.0],
			"metallicFactor":1.0,
			"roughnessFactor":1.0
		},
		"emissiveFactor":[0.0,
		0.0,
		0.0],
		"alphaMode":"OPAQUE",
		"doubleSided":false,
		"name":""
	},
	{
		"pbrMetallicRoughness":{
			"baseColorFactor":[1.0,
			1.0,
			1.0,
			1.0],
			"metallicFactor":1.0,
			"roughnessFactor":1.0
		},
		"emissiveFactor":[0.0,
		0.0,
		0.0],
		"alphaMode":"OPAQUE",
		"doubleSided":false,
		"name":""
	},
	{
		"pbrMetallicRoughness":{
			"baseColorFactor":[1.0,
			1.0,
			1.0,
			1.0],
			"metallicFactor":1.0,
			"roughnessFactor":1.0
		},
		"emissiveFactor":[0.0,
		0.0,
		0.0],
		"alphaMode":"OPAQUE",
		"doubleSided":false,
		"name":""
	},
	{
		"pbrMetallicRoughness":{
			"baseColorFactor":[1.0,
			1.0,
			1.0,
			1.0],
			"metallicFactor":1.0,
			"roughnessFactor":1.0
		},
		"emissiveFactor":[0.0,
		0.0,
		0.0],
		"alphaMode":"OPAQUE",
		"doubleSided":false,
		"name":""
	},
	{
		"pbrMetallicRoughness":{
			"baseColorFactor":[1.0,
			1.0,
			1.0,
			1.0],
			"metallicFactor":1.0,
			"roughnessFactor":1.0
		},
		"emissiveFactor":[0.0,
		0.0,
		0.0],
		"alphaMode":"OPAQUE",
		"doubleSided":false,
		"name":""
	}],
	"asset":{
		"version":"2.0",
		"generator":"Maxon Cinema 4D 2026.1.3 (#200000219)"
	},
	"scenes":[{
		"nodes":[0]
	}],
	"nodes":[{
		"name":"gift_save",
		"translation":[3.2869204032172759e-35,
		-0.19166666269302369,
		0.0],
		"rotation":[0.0,
		0.0,
		0.0,
		-1.0],
		"scale":[1.0,
		1.0,
		1.0],
		"children":[1,
		2]
	},
	{
		"name":"ribbon",
		"translation":[6.573840949927514e-36,
		-0.038333334028720859,
		0.0],
		"rotation":[0.0,
		0.0,
		0.0,
		-1.0],
		"scale":[1.0,
		1.0,
		1.0],
		"children":[3,
		4,
		5,
		6,
		7]
	},
	{
		"name":"Cube",
		"mesh":0,
		"translation":[-3.331629820995893e-15,
		1.4839571714401246,
		-5.684341759025859e-16],
		"rotation":[0.0,
		-1.0,
		0.0,
		-6.123234262925839e-17],
		"scale":[1.0,
		1.0,
		1.0]
	},
	{
		"name":"upper_ribbon_center",
		"mesh":1,
		"translation":[-3.9443044264635459e-35,
		0.07999999821186066,
		0.0],
		"rotation":[0.0,
		0.0,
		0.0,
		-1.0],
		"scale":[1.0,
		1.0,
		1.0]
	},
	{
		"name":"upper_ribbon",
		"mesh":2,
		"translation":[5.916457070174207e-35,
		-0.27000001072883608,
		-0.23000000417232514],
		"rotation":[0.0,
		-1.0,
		0.0,
		-6.123234262925839e-17],
		"scale":[1.0,
		1.0,
		1.0]
	},
	{
		"name":"upper_ribbon",
		"mesh":3,
		"translation":[5.916457070174207e-35,
		-0.27000001072883608,
		0.23000000417232514],
		"rotation":[0.0,
		0.0,
		0.0,
		-1.0],
		"scale":[1.0,
		1.0,
		1.0]
	},
	{
		"name":"ribbon",
		"mesh":4,
		"translation":[-3.9443044264635459e-35,
		0.23000000417232514,
		0.0],
		"rotation":[0.0,
		0.0,
		0.0,
		-1.0],
		"scale":[1.0,
		1.0,
		1.0]
	},
	{
		"name":"ribbon",
		"mesh":5,
		"translation":[-3.9443044264635459e-35,
		0.23000000417232514,
		0.0],
		"rotation":[0.0,
		0.0,
		0.0,
		-1.0],
		"scale":[1.0,
		1.0,
		1.0]
	}],
	"meshes":[{
		"name":"Cube",
		"primitives":[{
			"attributes":{
				"POSITION":1,
				"NORMAL":2,
				"TEXCOORD_0":3
			},
			"indices":0,
			"material":0
		}]
	},
	{
		"name":"upper_ribbon_center",
		"primitives":[{
			"attributes":{
				"POSITION":5,
				"NORMAL":6,
				"TEXCOORD_0":7
			},
			"indices":4,
			"material":1
		}]
	},
	{
		"name":"upper_ribbon",
		"primitives":[{
			"attributes":{
				"POSITION":9,
				"NORMAL":10,
				"TEXCOORD_0":11
			},
			"indices":8,
			"material":2
		}]
	},
	{
		"name":"upper_ribbon",
		"primitives":[{
			"attributes":{
				"POSITION":13,
				"NORMAL":14,
				"TEXCOORD_0":15
			},
			"indices":12,
			"material":3
		}]
	},
	{
		"name":"ribbon",
		"primitives":[{
			"attributes":{
				"POSITION":17,
				"NORMAL":18,
				"TEXCOORD_0":19
			},
			"indices":16,
			"material":4
		}]
	},
	{
		"name":"ribbon",
		"primitives":[{
			"attributes":{
				"POSITION":21,
				"NORMAL":22,
				"TEXCOORD_0":23
			},
			"indices":20,
			"material":5
		}]
	}],
	"accessors":[{
		"count":36288,
		"bufferView":0,
		"type":"SCALAR",
		"componentType":5123,
		"byteOffset":0,
		"min":[0],
		"max":[36287]
	},
	{
		"count":36288,
		"bufferView":1,
		"type":"VEC3",
		"componentType":5126,
		"byteOffset":0,
		"min":[-1.6170810461044312,
		-1.292290449142456,
		-1.5420434474945069],
		"max":[1.6170810461044312,
		1.6257908344268799,
		1.5420434474945069]
	},
	{
		"count":36288,
		"bufferView":1,
		"type":"VEC3",
		"componentType":5126,
		"byteOffset":12,
		"min":[-1.0,
		-1.0,
		-1.0],
		"max":[1.0,
		1.0,
		1.0]
	},
	{
		"count":36288,
		"bufferView":1,
		"type":"VEC2",
		"componentType":5126,
		"byteOffset":24,
		"min":[0.037942640483379367,
		-0.06043495982885361],
		"max":[0.96205735206604,
		0.9433684349060059]
	},
	{
		"count":732,
		"bufferView":2,
		"type":"SCALAR",
		"componentType":5123,
		"byteOffset":0,
		"min":[0],
		"max":[731]
	},
	{
		"count":732,
		"bufferView":3,
		"type":"VEC3",
		"componentType":5126,
		"byteOffset":0,
		"min":[-0.3040713369846344,
		3.0768511295318605,
		-0.28600001335144045],
		"max":[0.3041338324546814,
		3.2627389430999758,
		0.28600001335144045]
	},
	{
		"count":732,
		"bufferView":3,
		"type":"VEC3",
		"componentType":5126,
		"byteOffset":12,
		"min":[-0.9442858099937439,
		-0.9999683499336243,
		-0.9998332262039185],
		"max":[0.9402751922607422,
		0.9999927282333374,
		0.9997920989990234]
	},
	{
		"count":732,
		"bufferView":3,
		"type":"VEC2",
		"componentType":5126,
		"byteOffset":24,
		"min":[0.0,
		0.0],
		"max":[1.0,
		1.0]
	},
	{
		"count":1656,
		"bufferView":4,
		"type":"SCALAR",
		"componentType":5123,
		"byteOffset":0,
		"min":[0],
		"max":[1655]
	},
	{
		"count":1656,
		"bufferView":5,
		"type":"VEC3",
		"componentType":5126,
		"byteOffset":0,
		"min":[-0.34988194704055788,
		3.4405674934387209,
		-0.006067159119993448],
		"max":[0.34988194704055788,
		4.480476379394531,
		1.103932499885559]
	},
	{
		"count":1656,
		"bufferView":5,
		"type":"VEC3",
		"componentType":5126,
		"byteOffset":12,
		"min":[-1.0,
		-0.9999677538871765,
		-0.9999484419822693],
		"max":[1.0,
		0.999985933303833,
		0.9998798966407776]
	},
	{
		"count":1656,
		"bufferView":5,
		"type":"VEC2",
		"componentType":5126,
		"byteOffset":24,
		"min":[0.0,
		0.0],
		"max":[1.0,
		1.0]
	},
	{
		"count":1656,
		"bufferView":6,
		"type":"SCALAR",
		"componentType":5123,
		"byteOffset":0,
		"min":[0],
		"max":[1655]
	},
	{
		"count":1656,
		"bufferView":7,
		"type":"VEC3",
		"componentType":5126,
		"byteOffset":0,
		"min":[-0.34988194704055788,
		3.4405674934387209,
		-0.006067159119993448],
		"max":[0.34988194704055788,
		4.480476379394531,
		1.103932499885559]
	},
	{
		"count":1656,
		"bufferView":7,
		"type":"VEC3",
		"componentType":5126,
		"byteOffset":12,
		"min":[-1.0,
		-0.9999677538871765,
		-0.9999484419822693],
		"max":[1.0,
		0.999985933303833,
		0.9998798966407776]
	},
	{
		"count":1656,
		"bufferView":7,
		"type":"VEC2",
		"componentType":5126,
		"byteOffset":24,
		"min":[0.0,
		0.0],
		"max":[1.0,
		1.0]
	},
	{
		"count":1728,
		"bufferView":8,
		"type":"SCALAR",
		"componentType":5123,
		"byteOffset":0,
		"min":[0],
		"max":[1727]
	},
	{
		"count":1728,
		"bufferView":9,
		"type":"VEC3",
		"componentType":5126,
		"byteOffset":0,
		"min":[-1.6299985647201539,
		-0.009998545050621033,
		-0.30000001192092898],
		"max":[1.6299985647201539,
		2.9299986362457277,
		0.30000001192092898]
	},
	{
		"count":1728,
		"bufferView":9,
		"type":"VEC3",
		"componentType":5126,
		"byteOffset":12,
		"min":[-0.9998725056648254,
		-0.9998725056648254,
		-1.0],
		"max":[0.9998725056648254,
		0.9998725056648254,
		1.0]
	},
	{
		"count":1728,
		"bufferView":9,
		"type":"VEC2",
		"componentType":5126,
		"byteOffset":24,
		"min":[0.0,
		0.0],
		"max":[1.0,
		1.0]
	},
	{
		"count":1728,
		"bufferView":10,
		"type":"SCALAR",
		"componentType":5123,
		"byteOffset":0,
		"min":[0],
		"max":[1727]
	},
	{
		"count":1728,
		"bufferView":11,
		"type":"VEC3",
		"componentType":5126,
		"byteOffset":0,
		"min":[-0.30000001192092898,
		-0.009998545050621033,
		-1.5599985122680665],
		"max":[0.30000001192092898,
		2.9299986362457277,
		1.5599985122680665]
	},
	{
		"count":1728,
		"bufferView":11,
		"type":"VEC3",
		"componentType":5126,
		"byteOffset":12,
		"min":[-1.0,
		-0.9998725056648254,
		-0.9998725056648254],
		"max":[1.0,
		0.9998725056648254,
		0.9998725056648254]
	},
	{
		"count":1728,
		"bufferView":11,
		"type":"VEC2",
		"componentType":5126,
		"byteOffset":24,
		"min":[0.0,
		0.0],
		"max":[1.0,
		1.0]
	}],
	"bufferViews":[{
		"buffer":0,
		"target":34963,
		"byteOffset":0,
		"byteLength":72576
	},
	{
		"buffer":0,
		"target":34962,
		"byteOffset":72576,
		"byteLength":1161216,
		"byteStride":32
	},
	{
		"buffer":1,
		"target":34963,
		"byteOffset":0,
		"byteLength":1464
	},
	{
		"buffer":1,
		"target":34962,
		"byteOffset":1464,
		"byteLength":23424,
		"byteStride":32
	},
	{
		"buffer":2,
		"target":34963,
		"byteOffset":0,
		"byteLength":3312
	},
	{
		"buffer":2,
		"target":34962,
		"byteOffset":3312,
		"byteLength":52992,
		"byteStride":32
	},
	{
		"buffer":3,
		"target":34963,
		"byteOffset":0,
		"byteLength":3312
	},
	{
		"buffer":3,
		"target":34962,
		"byteOffset":3312,
		"byteLength":52992,
		"byteStride":32
	},
	{
		"buffer":4,
		"target":34963,
		"byteOffset":0,
		"byteLength":3456
	},
	{
		"buffer":4,
		"target":34962,
		"byteOffset":3456,
		"byteLength":55296,
		"byteStride":32
	},
	{
		"buffer":5,
		"target":34963,
		"byteOffset":0,
		"byteLength":3456
	},
	{
		"buffer":5,
		"target":34962,
		"byteOffset":3456,
		"byteLength":55296,
		"byteStride":32
	}],
	"buffers":[{
		"uri":"data:application/octet-stream;base64,",
		"byteLength":1233792
	},
	{
		"uri":"data:application/octet-stream;base64,",
		"byteLength":24888
	},
	{
		"uri":"data:application/octet-stream;base64,",
		"byteLength":56304
	},
	{
		"uri":"data:application/octet-stream;base64,",
		"byteLength":56304
	},
	{
		"uri":"data:application/octet-stream;base64,",
		"byteLength":58752
	},
	{
		"uri":"data:application/octet-stream;base64,",
		"byteLength":58752
	}]
}