{
	"asset":{
		"version":"2.0",
		"generator":"Created using the official Cinema 4D glTF Exporter 1.000x284978"
	},
	"scenes":[{
		"nodes":[0]
	}],
	"materials":[{
		"pbrMetallicRoughness":{
			"baseColorFactor":[1.0,
			1.0,
			1.0,
			1.0],
			"metallicFactor":1.0,
			"roughnessFactor":1.0
		},
		"emissiveFactor":[0.0,
		0.0,
		0.0],
		"alphaMode":"OPAQUE",
		"doubleSided":false,
		"name":""
	},
	{
		"pbrMetallicRoughness":{
			"baseColorFactor":[1.0,
			1.0,
			1.0,
			1.0],
			"metallicFactor":1.0,
			"roughnessFactor":1.0
		},
		"emissiveFactor":[0.0,
		0.0,
		0.0],
		"alphaMode":"OPAQUE",
		"doubleSided":false,
		"name":""
	},
	{
		"pbrMetallicRoughness":{
			"baseColorFactor":[1.0,
			1.0,
			1.0,
			1.0],
			"metallicFactor":1.0,
			"roughnessFactor":1.0
		},
		"emissiveFactor":[0.0,
		0.0,
		0.0],
		"alphaMode":"OPAQUE",
		"doubleSided":false,
		"name":""
	}],
	"nodes":[{
		"name":"water purifier",
		"translation":[0.0,
		-1.4210854715202005e-14,
		19.79166603088379],
		"rotation":[0.0,
		-1.0,
		0.0,
		-6.123234262925839e-17],
		"scale":[1.0,
		1.0,
		1.0],
		"children":[1,
		2,
		3,
		5]
	},
	{
		"name":"cup",
		"translation":[1.2731099128723145,
		68.75192260742188,
		129.7916717529297],
		"rotation":[6.123234262925839e-17,
		-6.123234262925839e-17,
		1.0,
		-6.123234262925839e-17],
		"scale":[1.0,
		1.0,
		1.0],
		"mesh":0
	},
	{
		"name":"logo",
		"translation":[1.0330301169331462e-14,
		249.029296875,
		183.6255340576172],
		"rotation":[0.0,
		0.0,
		0.0,
		-1.0],
		"scale":[1.0,
		1.0,
		1.0],
		"mesh":1
	},
	{
		"name":"Subdivision Surface",
		"translation":[1.0288187538226926e-14,
		199.21485900878907,
		127.21455383300781],
		"rotation":[0.0,
		0.0,
		0.0,
		-1.0],
		"scale":[1.0,
		1.0,
		1.0],
		"children":[4]
	},
	{
		"name":"Cylinder",
		"mesh":2
	},
	{
		"name":"body",
		"translation":[1.0288187538226926e-14,
		162.75,
		5.152055740356445],
		"rotation":[0.0,
		0.0,
		0.0,
		-1.0],
		"scale":[1.0,
		1.0,
		1.0],
		"children":[6]
	},
	{
		"name":"Cube",
		"mesh":3
	}],
	"meshes":[{
		"name":"cup",
		"primitives":[{
			"attributes":{
				"POSITION":1,
				"NORMAL":2,
				"TEXCOORD_0":3
			},
			"indices":0
		}]
	},
	{
		"name":"logo",
		"primitives":[{
			"attributes":{
				"POSITION":5,
				"NORMAL":6,
				"TEXCOORD_0":7
			},
			"indices":4,
			"material":0
		}]
	},
	{
		"name":"Cylinder",
		"primitives":[{
			"attributes":{
				"POSITION":9,
				"NORMAL":10,
				"TEXCOORD_0":11
			},
			"indices":8,
			"material":1
		}]
	},
	{
		"name":"Cube",
		"primitives":[{
			"attributes":{
				"POSITION":13,
				"NORMAL":14,
				"TEXCOORD_0":15
			},
			"indices":12,
			"material":2
		}]
	}],
	"accessors":[{
		"bufferView":0,
		"type":"SCALAR",
		"componentType":5123,
		"count":34560,
		"byteOffset":0,
		"min":[0],
		"max":[6058]
	},
	{
		"bufferView":1,
		"type":"VEC3",
		"componentType":5126,
		"count":6059,
		"byteOffset":0,
		"min":[-48.65257263183594,
		-48.35564041137695,
		-48.65257263183594],
		"max":[48.65257263183594,
		48.0,
		48.65257263183594]
	},
	{
		"bufferView":1,
		"type":"VEC3",
		"componentType":5126,
		"count":6059,
		"byteOffset":12,
		"min":[-0.9960949420928955,
		-1.0,
		-0.9960949420928955],
		"max":[0.9960949420928955,
		1.0,
		0.9960949420928955]
	},
	{
		"bufferView":1,
		"type":"VEC2",
		"componentType":5126,
		"count":6059,
		"byteOffset":24,
		"min":[0.0,
		-0.009974697604775429],
		"max":[1.0071145296096802,
		1.0]
	},
	{
		"bufferView":2,
		"type":"SCALAR",
		"componentType":5123,
		"count":6528,
		"byteOffset":0,
		"min":[0],
		"max":[1658]
	},
	{
		"bufferView":3,
		"type":"VEC3",
		"componentType":5126,
		"count":1659,
		"byteOffset":0,
		"min":[-16.301528930664064,
		-20.840818405151368,
		-0.41501250863075259],
		"max":[16.301528930664064,
		17.337392807006837,
		1.7983875274658204]
	},
	{
		"bufferView":3,
		"type":"VEC3",
		"componentType":5126,
		"count":1659,
		"byteOffset":12,
		"min":[-0.9999599456787109,
		-1.0,
		-1.0],
		"max":[0.9999797940254211,
		0.9999822378158569,
		1.0]
	},
	{
		"bufferView":3,
		"type":"VEC2",
		"componentType":5126,
		"count":1659,
		"byteOffset":24,
		"min":[0.0,
		0.0],
		"max":[1.0,
		1.0]
	},
	{
		"bufferView":4,
		"type":"SCALAR",
		"componentType":5123,
		"count":26880,
		"byteOffset":0,
		"min":[0],
		"max":[5032]
	},
	{
		"bufferView":5,
		"type":"VEC3",
		"componentType":5126,
		"count":5033,
		"byteOffset":0,
		"min":[-27.009355545043947,
		-23.39075469970703,
		-27.009355545043947],
		"max":[27.009355545043947,
		13.833749771118164,
		27.009355545043947]
	},
	{
		"bufferView":5,
		"type":"VEC3",
		"componentType":5126,
		"count":5033,
		"byteOffset":12,
		"min":[-1.0,
		-1.0,
		-1.0],
		"max":[1.0,
		1.0,
		1.0]
	},
	{
		"bufferView":5,
		"type":"VEC2",
		"componentType":5126,
		"count":5033,
		"byteOffset":24,
		"min":[0.0,
		0.1004553884267807],
		"max":[1.0,
		0.9516050815582275]
	},
	{
		"bufferView":6,
		"type":"SCALAR",
		"componentType":5123,
		"count":5004,
		"byteOffset":0,
		"min":[0],
		"max":[1058]
	},
	{
		"bufferView":7,
		"type":"VEC3",
		"componentType":5126,
		"count":1059,
		"byteOffset":0,
		"min":[-112.29750061035156,
		-162.75,
		-106.17401123046875],
		"max":[112.29750061035156,
		130.1999969482422,
		179.02499389648438]
	},
	{
		"bufferView":7,
		"type":"VEC3",
		"componentType":5126,
		"count":1059,
		"byteOffset":12,
		"min":[-1.0,
		-1.0,
		-1.0],
		"max":[1.0,
		1.0,
		1.0]
	},
	{
		"bufferView":7,
		"type":"VEC2",
		"componentType":5126,
		"count":1059,
		"byteOffset":24,
		"min":[-0.18115943670272828,
		-0.0317721888422966],
		"max":[1.181159496307373,
		1.0975227355957032]
	}],
	"bufferViews":[{
		"buffer":0,
		"byteOffset":0,
		"byteLength":69120,
		"target":34963
	},
	{
		"buffer":0,
		"byteOffset":69120,
		"byteLength":193888,
		"target":34962,
		"byteStride":32
	},
	{
		"buffer":1,
		"byteOffset":0,
		"byteLength":13056,
		"target":34963
	},
	{
		"buffer":1,
		"byteOffset":13056,
		"byteLength":53088,
		"target":34962,
		"byteStride":32
	},
	{
		"buffer":2,
		"byteOffset":0,
		"byteLength":53760,
		"target":34963
	},
	{
		"buffer":2,
		"byteOffset":53760,
		"byteLength":161056,
		"target":34962,
		"byteStride":32
	},
	{
		"buffer":3,
		"byteOffset":0,
		"byteLength":10008,
		"target":34963
	},
	{
		"buffer":3,
		"byteOffset":10008,
		"byteLength":33888,
		"target":34962,
		"byteStride":32
	}],
	"buffers":[{
		"uri":"data:application/octet-stream;base64,",
		"byteLength":263008
	},
	{
		"uri":"data:application/octet-stream;base64,",
		"byteLength":66144
	},
	{
		"uri":"data:application/octet-stream;base64,",
		"byteLength":214816
	},
	{
		"uri":"data:application/octet-stream;base64,",
		"byteLength":43896
	}]
}