{
  "asset": {
    "generator": "glTF-Transform v4.3.0",
    "version": "2.0"
  },
  "accessors": [
    {
      "type": "SCALAR",
      "componentType": 5123,
      "count": 17280,
      "bufferView": 0,
      "byteOffset": 0
    },
    {
      "type": "SCALAR",
      "componentType": 5123,
      "count": 3264,
      "bufferView": 0,
      "byteOffset": 34560
    },
    {
      "type": "SCALAR",
      "componentType": 5123,
      "count": 13440,
      "bufferView": 0,
      "byteOffset": 41088
    },
    {
      "type": "SCALAR",
      "componentType": 5123,
      "count": 2502,
      "bufferView": 0,
      "byteOffset": 67968
    },
    {
      "type": "VEC3",
      "componentType": 5126,
      "count": 3141,
      "max": [
        48.65257263183594,
        48,
        48.628807067871094
      ],
      "min": [
        -48.65257263183594,
        -48.35564041137695,
        -48.65257263183594
      ],
      "bufferView": 1,
      "byteOffset": 0
    },
    {
      "type": "VEC3",
      "componentType": 5126,
      "count": 3141,
      "bufferView": 1,
      "byteOffset": 12
    },
    {
      "type": "VEC2",
      "componentType": 5126,
      "count": 3141,
      "bufferView": 1,
      "byteOffset": 24
    },
    {
      "type": "VEC3",
      "componentType": 5126,
      "count": 906,
      "max": [
        16.301528930664062,
        17.321548461914062,
        1.7983875274658203
      ],
      "min": [
        -16.301528930664062,
        -20.840818405151367,
        -0.41501250863075256
      ],
      "bufferView": 2,
      "byteOffset": 0
    },
    {
      "type": "VEC3",
      "componentType": 5126,
      "count": 906,
      "bufferView": 2,
      "byteOffset": 12
    },
    {
      "type": "VEC2",
      "componentType": 5126,
      "count": 906,
      "bufferView": 2,
      "byteOffset": 24
    },
    {
      "type": "VEC3",
      "componentType": 5126,
      "count": 2618,
      "max": [
        27.009355545043945,
        13.833749771118164,
        27.009355545043945
      ],
      "min": [
        -27.006526947021484,
        -23.39075469970703,
        -27.006526947021484
      ],
      "bufferView": 3,
      "byteOffset": 0
    },
    {
      "type": "VEC3",
      "componentType": 5126,
      "count": 2618,
      "bufferView": 3,
      "byteOffset": 12
    },
    {
      "type": "VEC2",
      "componentType": 5126,
      "count": 2618,
      "bufferView": 3,
      "byteOffset": 24
    },
    {
      "type": "VEC3",
      "componentType": 5126,
      "count": 609,
      "max": [
        112.29750061035156,
        130.1999969482422,
        179.02499389648438
      ],
      "min": [
        -112.29750061035156,
        -162.75,
        -106.17401123046875
      ],
      "bufferView": 4,
      "byteOffset": 0
    },
    {
      "type": "VEC3",
      "componentType": 5126,
      "count": 609,
      "bufferView": 4,
      "byteOffset": 12
    },
    {
      "type": "VEC2",
      "componentType": 5126,
      "count": 609,
      "bufferView": 4,
      "byteOffset": 24
    }
  ],
  "bufferViews": [
    {
      "buffer": 0,
      "byteOffset": 0,
      "byteLength": 72972,
      "target": 34963
    },
    {
      "buffer": 0,
      "byteOffset": 72972,
      "byteLength": 100512,
      "byteStride": 32,
      "target": 34962
    },
    {
      "buffer": 1,
      "byteOffset": 0,
      "byteLength": 28992,
      "byteStride": 32,
      "target": 34962
    },
    {
      "buffer": 2,
      "byteOffset": 0,
      "byteLength": 83776,
      "byteStride": 32,
      "target": 34962
    },
    {
      "buffer": 3,
      "byteOffset": 0,
      "byteLength": 19488,
      "byteStride": 32,
      "target": 34962
    }
  ],
  "buffers": [
    {
      "uri": "waterpurifier_simplified_1.bin",
      "byteLength": 173484
    },
    {
      "uri": "waterpurifier_simplified_2.bin",
      "byteLength": 28992
    },
    {
      "uri": "waterpurifier_simplified_3.bin",
      "byteLength": 83776
    },
    {
      "uri": "waterpurifier_simplified_4.bin",
      "byteLength": 19488
    }
  ],
  "materials": [
    {
      "pbrMetallicRoughness": {}
    },
    {
      "pbrMetallicRoughness": {}
    },
    {
      "pbrMetallicRoughness": {}
    }
  ],
  "meshes": [
    {
      "name": "cup",
      "primitives": [
        {
          "attributes": {
            "POSITION": 4,
            "NORMAL": 5,
            "TEXCOORD_0": 6
          },
          "mode": 4,
          "indices": 0
        }
      ]
    },
    {
      "name": "logo",
      "primitives": [
        {
          "attributes": {
            "POSITION": 7,
            "NORMAL": 8,
            "TEXCOORD_0": 9
          },
          "mode": 4,
          "material": 0,
          "indices": 1
        }
      ]
    },
    {
      "name": "Cylinder",
      "primitives": [
        {
          "attributes": {
            "POSITION": 10,
            "NORMAL": 11,
            "TEXCOORD_0": 12
          },
          "mode": 4,
          "material": 1,
          "indices": 2
        }
      ]
    },
    {
      "name": "Cube",
      "primitives": [
        {
          "attributes": {
            "POSITION": 13,
            "NORMAL": 14,
            "TEXCOORD_0": 15
          },
          "mode": 4,
          "material": 2,
          "indices": 3
        }
      ]
    }
  ],
  "nodes": [
    {
      "name": "water purifier",
      "translation": [
        0,
        -1.4210854715202004e-14,
        19.79166603088379
      ],
      "rotation": [
        0,
        -1,
        0,
        -6.123234262925839e-17
      ],
      "children": [
        1,
        2,
        3,
        5
      ]
    },
    {
      "name": "cup",
      "translation": [
        1.2731099128723145,
        68.75192260742188,
        129.7916717529297
      ],
      "rotation": [
        6.123234262925839e-17,
        -6.123234262925839e-17,
        1,
        -6.123234262925839e-17
      ],
      "mesh": 0
    },
    {
      "name": "logo",
      "translation": [
        1.0330301169331462e-14,
        249.029296875,
        183.6255340576172
      ],
      "rotation": [
        0,
        0,
        0,
        -1
      ],
      "mesh": 1
    },
    {
      "name": "Subdivision Surface",
      "translation": [
        1.0288187538226926e-14,
        199.21485900878906,
        127.21455383300781
      ],
      "rotation": [
        0,
        0,
        0,
        -1
      ],
      "children": [
        4
      ]
    },
    {
      "name": "Cylinder",
      "mesh": 2
    },
    {
      "name": "body",
      "translation": [
        1.0288187538226926e-14,
        162.75,
        5.152055740356445
      ],
      "rotation": [
        0,
        0,
        0,
        -1
      ],
      "children": [
        6
      ]
    },
    {
      "name": "Cube",
      "mesh": 3
    }
  ],
  "scenes": [
    {
      "nodes": [
        0
      ]
    }
  ]
}